<?xml version="1.0" ?>
<svg height="200" width="1060" xmlns="http://www.w3.org/2000/svg" xmlns:xlink="http://www.w3.org/1999/xlink">
    <g style="stroke:#000;stroke-width:2px;fill:none;">
		<rect x="10" y="10" width="1040" height="180"/>
		<path d="M50,10 L50,190"/>
		<path d="M90,10 L90,190"/>
		<path d="M130,10 L130,190"/>
		<path d="M170,10 L170,190"/>
		<path d="M210,10 L210,190"/>
		<path d="M250,10 L250,190"/>
		<path d="M290,10 L290,190"/>
		<path d="M330,10 L330,190"/>
		<path d="M370,10 L370,190"/>
		<path d="M410,10 L410,190"/>
		<path d="M450,10 L450,190"/>
		<path d="M490,10 L490,190"/>
		<path d="M530,10 L530,190"/>
		<path d="M570,10 L570,190"/>
		<path d="M610,10 L610,190"/>
		<path d="M650,10 L650,190"/>
		<path d="M690,10 L690,190"/>
		<path d="M730,10 L730,190"/>
		<path d="M770,10 L770,190"/>
		<path d="M810,10 L810,190"/>
		<path d="M850,10 L850,190"/>
		<path d="M890,10 L890,190"/>
		<path d="M930,10 L930,190"/>
		<path d="M970,10 L970,190"/>
		<path d="M1010,10 L1010,190"/>
		<path d="M10,40 L1050,40"/>
		<path d="M10,100 L1050,100"/>
		<path d="M10,130 L1050,130"/>
    </g>
    <g style="font-family:sans-serif;font-size:18px;text-anchor:middle;text-align:center;">
		<text y="30">
			<tspan x="30">a</tspan><tspan x="70">b</tspan><tspan x="110">c</tspan><tspan x="150">d</tspan><tspan x="190">e</tspan><tspan x="230">f</tspan><tspan x="270">g</tspan><tspan x="310">h</tspan><tspan x="350">i</tspan><tspan x="390">j</tspan><tspan x="430">k</tspan><tspan x="470">l</tspan><tspan x="510">m</tspan><tspan x="550">n</tspan><tspan x="590">o</tspan><tspan x="630">p</tspan><tspan x="670">q</tspan><tspan x="710">r</tspan><tspan x="750">s</tspan><tspan x="790">t</tspan><tspan x="830">u</tspan><tspan x="870">v</tspan><tspan x="910">w</tspan><tspan x="950">x</tspan><tspan x="990">y</tspan><tspan x="1030">z</tspan>
		</text>
		<text y="120">
			<tspan x="30">A</tspan><tspan x="70">B</tspan><tspan x="110">C</tspan><tspan x="150">D</tspan><tspan x="190">E</tspan><tspan x="230">F</tspan><tspan x="270">G</tspan><tspan x="310">H</tspan><tspan x="350">I</tspan><tspan x="390">J</tspan><tspan x="430">K</tspan><tspan x="470">L</tspan><tspan x="510">M</tspan><tspan x="550">N</tspan><tspan x="590">O</tspan><tspan x="630">P</tspan><tspan x="670">Q</tspan><tspan x="710">R</tspan><tspan x="750">S</tspan><tspan x="790">T</tspan><tspan x="830">U</tspan><tspan x="870">V</tspan><tspan x="910">W</tspan><tspan x="950">X</tspan><tspan x="990">Y</tspan><tspan x="1030">Z</tspan>
		</text>
    </g>
	<g>
		<path d="M21.4,78.3c0-2.2,1.1-4.2,3.4-6c1.9-1.5,3.3-2.2,4.3-2.2l2.4-0.2l-0.1,0.8c0,1.5,0.5,3.1,1.6,4.8c1.3,2,3.2,3.6,5.6,4.8l1,0.6l-2.8,1.4c-1.2,0.6-1.9,0.9-2.2,0.9c-0.6,0-1.4-0.4-2.6-1.2l-1.6-1.1l-3.3,1.8c-1.4,0.8-2.3,1.1-2.6,1.1c-0.6,0-1.3-0.8-2.1-2.4C21.8,80,21.4,78.9,21.4,78.3z M24.9,74.7c0,1.1,0.3,2.2,1,3.4c0.6,1,1,1.6,1.3,1.6c0.4,0,0.8-0.1,1.1-0.2c0.7-0.2,1.3-0.6,1.6-1.2c-0.1-1-0.5-2.1-1.1-3.5c-0.6-1.4-1.1-2.2-1.6-2.5c-0.1,0-0.1,0-0.2,0c-0.4,0-0.8,0.3-1.3,1L24.9,74.7z"/>
		<path d="M96.8,77.1l0-0.4c0-0.3,0.4-0.8,1.3-1.6l2.4-2c0.4-0.4,0.8-0.8,1.2-1.1c0.4-0.3,0.8-0.7,1.2-0.9c1-0.7,1.9-1.2,2.9-1.4c0.6,0.1,1,0.2,1.4,0.2c0.4,0,0.8,0.1,1.2,0.1l3.1,0.1h0.4h1l0.5,0H124c-0.3,0.1-0.6,0.3-0.9,0.5c-0.3,0.2-0.6,0.3-0.6,0.4c-1.1,0.7-1.6,1.3-1.6,1.9c0,0.3,0.2,0.6,0.6,0.8h-8h-5.4c-1,0-2.3,0.2-3.7,0.6c-1.4,0.4-2.1,0.8-2.2,1.2c0,0.1,0,0.2,0,0.3c0,0.9,0.5,1.6,1.6,2.3c1.2,0.7,2.9,1.1,5.1,1.1c1.1,0,2.1-0.1,3.1-0.2c-0.4,1.1-1.7,2.1-3.6,2.9c-1.7,0.6-3.3,1-4.8,1c0,0,0,0-0.1,0l-0.7,0c-1.1-0.1-2.2-0.7-3.5-1.7C97.6,79.8,96.9,78.5,96.8,77.1z"/>
		<path d="M142.7,79.3c0-2.1,0.5-3.8,1.6-5.1c0.9-1.1,2.4-2.2,4.5-3.3c-0.6-0.7-1-1.9-1.3-3.4l-0.3-2.1c0-1.6,0.6-2.8,1.7-3.7c1.5-1.2,3.8-1.8,7-1.8c0.5,0,1.1,0.3,1.9,1s1.2,1.3,1.2,1.8c0,1.3-0.7,2.5-2.1,3.8l-3.9,3.2c1,1.4,1.7,2.7,2.3,3.8c0.4,0.9,0.9,2.4,1.5,4.5c0.3,1,0.4,1.9,0.4,2.6c0,1.8-0.8,3-2.3,3.7c-1,0.4-2.4,0.6-4.2,0.6c0,0-0.1,0-0.1,0c-1.9,0-3.6-0.4-5.1-1.3C143.6,82.5,142.7,81.1,142.7,79.3z M146.2,77.4c0.1,1.1,0.7,2,1.7,2.7s2.3,1,3.8,1c0.5,0,0.9-0.2,1.1-0.5c0.2-0.3,0.3-0.8,0.3-1.3c0-0.4,0-0.6-0.1-0.8l-0.1-0.7c-0.1-0.3-0.6-1.3-1.3-3c-0.6-1.4-1.1-2.3-1.7-2.7c-0.6,0.5-1.2,1.3-2,2.2C147,75.6,146.4,76.6,146.2,77.4z M151.4,63.9c0,0.9,0.2,1.8,0.5,2.8c0.3,1,0.7,1.7,1.1,2.2l1.2-1.5c1.2-1.5,1.8-2.3,1.9-2.4c0-0.7-0.1-1.2-0.2-1.6c-0.2-0.6-0.7-0.9-1.4-0.9c-0.4,0-1,0.2-1.8,0.5C151.8,63.3,151.4,63.7,151.4,63.9z"/>
		<path d="M183.3,77.4l0-0.6c0-0.2,0.4-0.7,1.3-1.6c0.8-0.8,1.6-1.5,2.7-2.2c0.7-0.6,1.3-1,1.8-1.2l2.3-0.5l1.3-0.1c0.4,0,0.6,0,0.8,0.1c0.1,0.1,0.2,0.2,0.2,0.4c0,0.1,0,0.2-0.1,0.3l-0.2,0.2c-0.8,0.3-1.8,0.9-3.1,1.9l-1.8,1.5c0,1.1,0.4,1.9,1.3,2.6c1,0.7,2.7,1.1,4.9,1.1c1.1,0,2.2-0.1,3.3-0.2c-0.5,1.2-1.6,2.1-3.3,2.9c-1.5,0.7-3,1-4.6,1l-0.8,0c-1.2-0.1-2.5-0.7-3.9-1.7C184.1,80.1,183.3,78.8,183.3,77.4z"/>
		<path d="M216.5,71.9c0-1,0.5-2,1.4-2.8c0.5-0.4,1-0.7,1.7-0.9c0.6-0.2,1.3-0.3,1.9-0.3c0.9,0,1.7,0.1,2.3,0.4l1.6,0.8c0.1-0.5,0.1-1.2,0.1-2c0-1.1-0.1-2.4-0.3-3.8l-1.6-11.9l1.6-0.3c0.4-0.1,0.8-0.2,1.1-0.3c0.3-0.1,0.5-0.1,0.6-0.1c0.3,0,0.5,0.1,0.7,0.2c0.2,0.1,0.5,0.4,0.7,0.7c0.1,0.1,0.2,0.4,0.3,0.9c0,0.3,0,0.6,0.1,0.9c0,0.3,0,0.5,0,0.7s0,0.4,0,0.6c0,0.3,0,0.7,0,1.3c0,0.5,0,0.9,0,1.1c0,0.6,0.1,0.9,0.2,1.1c0.1,0.1,0.3,0.2,0.5,0.3c0.3,0.3,0.7,0.4,1.3,0.4c0.1,0,0.3,0,0.4,0c0.2,0,0.4-0.1,0.6-0.1c0.9,0,1.4,0,1.7-0.1c0.3-0.1,0.5-0.2,0.7-0.5c0.1-0.1,0.2-0.3,0.3-0.4c0.1-0.2,0.2-0.5,0.2-0.8c0-0.2,0-0.3,0-0.4c-0.2-1.3-0.2-2.4-0.2-3.2c0-0.7,0.1-1.3,0.2-1.8c0.1-0.5,0.4-0.9,0.7-1.2c0.8-0.8,2.1-1.1,4-1.1c1,0,1.8,0.3,2.4,0.9c0.4,0.4,0.9,1.1,1.3,2c0.2,0.5,0.3,0.8,0.4,1.1s0.1,0.7,0.1,1.1c0,0.5-0.1,0.9-0.2,1.3s-0.3,0.9-0.7,1.5c-0.5,0.9-1.1,1.6-1.8,2.1c-0.5,0.4-1.5,0.8-2.9,1.3c0,0.5,0.1,1.4,0.2,2.7c0.1,1.2,0.2,2.5,0.4,3.8c0,1.5-0.2,2.8-0.7,3.7c-0.3,0.6-0.7,1.1-1.4,1.7c-0.6,0.6-1.4,0.9-2.3,0.9c-1.5,0-2.6,0-3.3-0.1c-0.7-0.1-1.1-0.1-1.2-0.1c0,1.1,0,2.2,0,3.4c0,1.2,0,2.6,0,4.3c0,0.7,0,1.3,0,1.8c0,0.5,0,0.9,0,1.1c0.2,2.7,0.3,4.4,0.3,5.1c0,1.1-0.1,1.9-0.3,2.6c-0.2,0.6-0.5,1-0.9,1c-0.3,0-1-0.3-2.1-0.9s-1.6-1-1.7-1.3c0.2-0.5,0.4-1,0.6-1.6s0.3-1,0.3-1.2l-0.1-8.8l-0.1-6.7c-0.7-0.2-1.1-0.4-1.2-0.4c-0.4-0.2-0.7-0.3-0.9-0.4c-1.3-0.6-2.4-0.9-3.1-0.9c-0.8,0-1.2,0.4-1.2,1.2c0,0.3,0.3,0.7,1,1c0.7,0.3,1,0.5,1.1,0.6c-0.3,0.6-0.5,1-0.6,1.2c-0.3,0.4-0.7,0.6-1.2,0.6c-0.5,0-1.2-0.3-2-1C216.9,73,216.5,72.4,216.5,71.9z M228.7,61.5c0,2.2,0.2,4.9,0.6,8.1c0.4,0.1,0.7,0.2,0.9,0.2c0.8,0.2,1.5,0.3,2,0.3c0.7,0,1.3-0.1,1.7-0.3c0.5-0.2,0.9-0.6,1-1s0.2-1,0.2-1.7s0.1-1.5,0.1-2.5c0-1.1-0.1-2.2-0.2-3.2c-1.2,0.2-2.3,0.3-3.3,0.3c-0.4,0-0.9,0-1.3,0C230,61.7,229.4,61.6,228.7,61.5zM237.3,56.7c0,0.2,0,0.3,0,0.4c1.1-0.2,1.9-0.6,2.5-1.2c0.6-0.6,0.9-1.3,0.9-2c0-0.4-0.1-0.7-0.4-1.1c-0.1-0.2-0.3-0.3-0.6-0.4c-0.3-0.1-0.5-0.1-0.8-0.1c-0.3,0-0.6,0-0.8,0.1s-0.4,0.2-0.5,0.3c-0.1,0.1-0.2,0.5-0.2,1.2c0,0.7-0.1,1.4-0.1,2.3C237.3,56.3,237.3,56.5,237.3,56.7z"/>
		<path d="M260.8,76.8c0-1.9,0.4-3.3,1.3-4.3c0.6-0.7,1.8-1.3,3.5-1.8c2.6-0.8,4.2-1.4,4.7-1.6c-0.4-0.9-0.6-1.6-0.6-2.2c0-2.8,0.7-4.8,2.2-5.9c0.9-0.6,2.1-1,3.6-1c1.2,0,2.5,0.4,4,1.1c1.2,0.6,1.8,1.2,1.8,2c0,1.6-0.6,2.9-1.7,3.7l-3.1,1.4c0.5,1.8,1.2,3.7,2,6l1.6,4.6c0.4,1.5,0.6,2.8,0.6,3.8c0,1.1-0.4,2.5-1.3,4.2c-0.9,1.8-2.2,3.5-3.8,5c-1.9,1.8-3.9,3.2-6.1,4.1l4.6-3.8c1.6-1.6,2.4-3.5,2.4-5.7c0-2.3-0.2-4.2-0.5-5.6c-0.3-1.5-0.7-2.2-1.3-2.2c-1,1-2.2,1.9-3.6,2.6c-1.6,0.8-3.3,1.2-5.3,1.2c-1.9,0-3.3-0.6-4.2-1.9C261.1,79.4,260.8,78.2,260.8,76.8z M264.9,77.4c0.4,0.4,0.9,0.7,1.7,0.9c0.4,0.1,0.8,0.1,1.1,0.2c0.4,0,0.8,0.1,1.3,0.1c0.5,0,1,0,1.6,0c0.5-0.1,0.8-0.1,1-0.1l2.8-0.3c0.2,0,0.3-0.1,0.3-0.2l-0.3-0.6c-0.2-0.3-0.2-0.6-0.2-0.7l-1.2-2.2l-1.1-1.7h-0.9l-1.2,0c-0.5,0-1,0.1-1.5,0.2c-1.3,0.2-2.2,0.6-2.7,1.4C265.2,74.9,264.9,76,264.9,77.4z M273.9,64.7c0,0.4,0.3,0.9,1,1.5l1,1c0.4-0.4,0.8-0.8,1.3-1.5c0.5-0.6,0.8-1.1,1.1-1.6l-0.4-0.5c-0.4-0.3-1.1-0.6-2.2-0.8c0,0-0.1,0-0.1,0c-0.3,0-0.6,0.2-1.1,0.7C274.2,64.2,274,64.5,273.9,64.7z"/>
		<path d="M298.2,70l18.8,0v1.1c-1.3,1.4-3.1,3-5.3,4.8c-0.6,0.5-1,1-1.3,1.5l-0.2,0.7c0,0.6,0.3,1,1,1.4c0.7,0.3,1.5,0.5,2.5,0.5c0.7,0,1.5-0.1,2.3-0.3c0.8-0.2,1.6-0.5,2.3-0.9c0.1,0.2,0.5,0.3,1.3,0.5l0.5,0.1c0,1.4-0.8,2.5-2.4,3.3c-1.5,0.7-3.3,1-5.4,1c-1.8,0-3.4-0.4-4.7-1.2c-1.3-0.8-2-1.7-2-2.8c0-0.4,0.4-1.1,1.1-2l2.3-2.8c-0.4-0.4-1.1-0.7-1.9-0.9c-0.4-0.1-0.9-0.1-1.3-0.2c-0.4,0-0.9-0.1-1.5-0.1h-6L298.2,70z"/>
		<path d="M344,72.3c0.5,0,0.9,0,1.2-0.1s0.5-0.1,0.6-0.1c0.1-0.1,0.3-0.1,0.4-0.1c0.1,0,0.3,0,0.6,0c1.3,0,2.3,0.5,3,1.6l1.3,2.9c0.7,1.1,1.4,2,2.4,2.7l2.5,1.8c-0.3,0.6-0.8,1.2-1.4,1.7c-0.6,0.5-1.2,0.7-1.8,0.7c-0.3,0-0.5,0-0.7-0.1c-1.4-0.4-2.4-1.3-3-2.7C347.7,77.6,346,74.9,344,72.3z"/>
		<path d="M380.9,71.5c0.1-0.2,0.7-0.5,1.8-0.9s1.9-0.6,2.3-0.6l1.5,1.5c0.4,0.4,0.9,0.8,1.4,1.2c0.1,0,0.1,0.1,0.3,0.2l0.9-0.7c0.3-0.2,0.7-0.5,1.1-0.8c0.4-0.3,0.9-0.6,1.4-0.9c-0.3-0.3-0.8-0.8-1.5-1.4c-0.5-0.5-0.9-0.9-1.2-1.2c-0.3-0.4-0.6-0.7-0.8-1.1c-0.2-0.3-0.3-0.7-0.3-1.1c0-2.2,0.8-3.7,2.5-4.5c1-0.5,2.3-0.7,3.9-0.7c2.1,0,3.5,0.6,4.2,1.9c0.4,0.7,0.5,1.9,0.5,3.5c0,0.8-0.4,1.6-1.1,2.5c-0.4,0.4-1,1-1.8,1.6c0.7,1,1.3,2.3,1.9,3.9c0.6,1.6,0.9,3,0.9,4.4c0,1.5-0.4,2.7-1.2,3.5c-0.4,0.4-0.9,0.7-1.4,0.9c-0.5,0.2-1.1,0.3-1.8,0.3c-2.3,0-4.5-0.9-6.6-2.7c-1.3-1.2-2.8-2.9-4.4-5.3C382.1,72.9,381.2,71.7,380.9,71.5z M389.4,74.5l1.6,2.6c0.4,0.6,1,1.2,1.8,1.9l0.3,0.3c0.3,0.2,0.5,0.4,0.7,0.5c0.2,0.1,0.4,0.2,0.6,0.2c0.3,0,0.5-0.2,0.7-0.5c0.2-0.3,0.3-0.8,0.3-1.6c0-1.1-0.2-2.2-0.6-3.3c-0.4-1.1-0.9-1.8-1.4-2.2c-0.4,0.4-1,0.7-1.8,1.1C390.3,74.1,389.6,74.4,389.4,74.5z M391.3,65.8c0.3,0.3,0.7,0.6,1.1,1.1l1.7,1.8l1.8-1.2c0.6-0.5,1-1,1-1.6l-0.1-0.5c-0.1-0.5-0.5-0.9-1-1.2c-0.5-0.3-1-0.5-1.5-0.5h-0.4c-0.6,0-1.1,0.1-1.5,0.3C391.8,64.3,391.5,64.9,391.3,65.8z"/>
		<path d="M420,86.4c0.3-0.9,0.5-2,0.7-3.4c0.2-1.4,0.3-2.8,0.3-4.2c0-1,0-1.8,0-2.5c0-0.7,0-1.4-0.1-2.1l-0.2-3.8l0.1-1v-1l-0.1-4l-0.1-4.2c0-2.5,0.2-4.5,0.7-5.9c0.6-1.7,1.5-2.8,2.9-3.3c-0.3,0.9-0.5,1.7-0.6,2.3c-0.1,0.7-0.2,1.3-0.2,1.9c0,1.5,0.5,2.6,1.6,3.2c0.7,0.4,1.7,0.6,3,0.6l0.9,0c0.3,0,0.6,0,0.8-0.1l0.9-3.7c0.8-2.9,2.8-4.3,6.3-4.3c0,0,0,0,0,0c0.7,0,1.5,0.7,2.5,2.1c1.1,1.6,1.7,3.2,1.7,4.9c0,1.7-0.3,2.8-1,3.5c-0.5,0.5-1.3,0.8-2.4,0.8l-1.4,0l-2.3-0.1l-0.7,0l0,20.4c0.1,1.1,0.4,2,0.7,2.4c0.3,0.5,0.8,0.7,1.3,0.7c0.5,0,1.1-0.2,1.8-0.7l0.9-0.8c0,1.2-0.5,2.1-1.4,2.8c-0.9,0.7-2.1,1.1-3.5,1.1c-1.5,0-2.6-0.7-3.3-2c-0.5-1.1-0.8-2.7-0.8-4.8c0-1.2,0.1-2.5,0.2-4l0.5-6.1c0-0.4,0-0.7,0-1s0-0.7,0.1-1v-7.2c-0.7,0-1.3,0.1-1.9,0.2l-0.9,0.2l-0.8-0.1l-1.2-0.4c-0.1,0.2-0.1,0.5-0.2,0.8s-0.1,0.7-0.1,1l-0.1,2.7l0,2.9c0,0.4,0,0.7,0,1s0,0.7,0.1,1c0,0.5,0,1.4,0.1,2.6s0.1,2.1,0.1,2.8l0.5,5.8l0.3,4.2c0,0.5-0.3,0.9-1,1.1c-0.6,0.3-1.4,0.4-2.4,0.4c-0.5,0-1-0.2-1.6-0.5S420,86.9,420,86.4z M432.7,58.8l1.7,0.2l1.7,0.1c0.7,0,1.2-0.1,1.5-0.2s0.5-0.4,0.5-0.7l0-0.3c-0.1-0.5-0.3-1.2-0.6-2l-0.4-1.2c-0.8,0-1.6,0.1-2.3,0.4c-1,0.3-1.7,0.8-2,1.4l-0.1,0.4l0.1,0.5l0.1,0.6C432.9,58.1,432.8,58.4,432.7,58.8z"/>
		<path d="M463.3,91.6c0-0.2,0.2-0.7,0.6-1.5l0.6-1c0-0.2,0.7-1.7,2.1-4.6c1.4-2.9,2.2-4.5,2.2-4.8l-0.4-0.4c-0.7-0.7-1.4-1.6-2.2-2.8l-1.3-2.1c-0.6-1-0.8-1.9-0.8-2.6l0.1-0.6c0.3-0.9,1.2-1.8,2.8-2.7c0.6-0.3,1.3-0.6,2-0.9c0.7-0.2,1.4-0.4,2.1-0.5l1.6-0.1c1,0,2,0.1,2.9,0.3c0.9,0.1,1.4,0.4,1.7,0.8c-0.6,0.7-1.5,2.2-2.6,4.3c-1.1,2.2-1.7,3.4-1.7,3.8c0,0.2,0.5,0.8,1.5,1.9l3.2,3.3c0,0.3-0.4,0.8-1.2,1.5c-0.8,0.7-1.4,1-1.7,1c-0.2,0-0.8-0.3-1.7-0.8c-1-0.6-1.8-1.3-2.4-2l-3.5,6.2C466,89.1,464.8,90.5,463.3,91.6z M468.4,71.1c0,0.2,0.1,0.4,0.3,0.8c0.2,0.3,0.5,0.8,0.9,1.3c0.8,1,1.3,1.6,1.7,1.9l1.4-2.8l0.8-1.8l-0.9-0.5c-0.3-0.2-0.6-0.3-1-0.3l-0.8,0.1c-0.4,0-0.9,0.2-1.5,0.7L468.4,71.1z"/>
		<path d="M500.3,70.7c0.1-0.1,0.3-0.1,0.6-0.1c0.3,0,0.5,0,0.8,0c0.3,0.1,0.5,0.1,0.6,0.1l1.5,0.2c0.2,0,0.6,0.2,1.1,0.6l0.9,0.5l0.6-0.4c1-0.7,1.8-1.4,2.5-2.2c-0.7-0.6-1.2-1.2-1.6-2c-0.3-0.8-0.5-1.6-0.5-2.4l0-0.7l0.1-0.7c0.3-1.4,0.9-2.4,1.7-2.9c0.8-0.5,2.1-0.7,4-0.7c1.6,0,3,0.4,4.2,1.3c1.1,0.8,1.6,1.7,1.6,2.7c0,0.9-0.5,1.8-1.4,2.5l-3.4,1.9l1.4,2.2c0.6,0.9,1.1,1.8,1.6,2.6c0.4,0.7,0.8,1.4,1.2,2.2c1,2,1.5,3.5,1.5,4.5c0,1.8-0.6,3.6-1.7,5.3c-0.9,1.4-2.1,2.7-3.7,4c-1,0.8-2.2,1.6-3.5,2.2c0.6-0.6,1.2-1,1.6-1.5c0.5-0.5,0.9-0.9,1.2-1.2c1.9-2.1,2.8-3.9,2.8-5.4c0-1.4-0.7-3.4-2-5.9c-1.4-2.6-2.6-4.3-3.7-5.3c-0.8,0.5-1.3,0.9-1.7,1.3l-1.2,1.3c0.2,0.7,0.4,1.4,0.7,2.1c0.2,0.7,0.5,1.3,0.8,2c0.5,1.2,1.1,2.1,1.9,2.7l-1,0.7c-0.6,0.3-1.2,0.4-2,0.4c0,0-0.1,0-0.1,0c-0.7,0-1.3-0.6-1.9-1.7l-1.9-4.4C502.9,74.3,501.7,72.4,500.3,70.7z M511.2,64.9c0,0.4,0.2,0.9,0.7,1.6c0.3,0.3,0.5,0.6,0.7,0.8c0.2,0.2,0.4,0.4,0.6,0.5l1.8-1.8c0.5-0.5,0.8-0.9,0.8-1.2c0-0.9-0.3-1.6-0.8-2c-0.3-0.3-0.8-0.4-1.3-0.4l-0.4,0c-0.5,0-0.8,0.1-1.1,0.2C511.5,63.1,511.2,63.9,511.2,64.9z"/>
		<path d="M540.2,59.1c0-0.3,0-0.4,0.1-0.5c0.6-0.8,1.2-1.3,1.8-1.5c0.8-0.3,2.1-0.5,3.8-0.5c2.8,0,5.3,1,7.7,3c1.9,1.6,3.5,3.7,4.7,6.3c1.1,2.2,1.6,3.9,1.6,5.3c0,0.5-0.6,1.7-1.9,3.7c-1.4,2.2-2.8,4.1-4.1,5.5c-1.7,1.9-3.1,2.8-4.1,2.8c-0.3,0-0.5-0.1-0.7-0.2c-0.6-0.3-1.4-1.4-2.3-3.2l-2.6-4.7c-1.1-1.6-2.1-2.6-3.2-3l3.8-1.1l0.4-0.1c0.5,0,1.2,0.7,2,2l2.3,3.7c1,1.3,1.9,2,2.8,2c0.7,0,1.3-1,1.8-3c0.2-0.9,0.4-2.5,0.7-4.7l0-0.6c0-2.4-1.1-4.7-3.2-7c-2.3-2.4-4.9-3.6-7.7-3.6c-0.3,0.2-0.6,0.8-0.8,1.8c-0.1,1-0.5,1.4-1,1.5c-0.6,0-1.1-0.5-1.5-1.5C540.3,60.7,540.2,60,540.2,59.1C540.2,59.2,540.2,59.1,540.2,59.1z"/>
		<path d="M582.7,79.3c0-2.1,0.9-4.2,2.6-6.2c1.8-2.2,3.8-3.2,6-3.2c1.2,0,2.5,0.4,3.9,1.3c1.6,1,2.5,2.1,2.5,3.3c0,2.5-1.3,4.6-3.9,6.2c-2.2,1.4-4.3,2.1-6.4,2.1c-0.5,0-1.3-0.3-2.5-1C583.4,81,582.7,80.1,582.7,79.3z M587.2,75.6l2,2.4c1.2,1.4,2.1,2.1,2.7,2.1c0.2,0,0.6-0.5,1.2-1.6c0.6-1.1,0.9-1.8,0.9-2.4c0-0.3-0.5-1-1.5-2.1c-1.1-1.2-2-1.8-2.6-1.8h0c-0.3,0-0.8,0.4-1.4,1.3L587.2,75.6z"/>
		<path d="M615.2,69.8c0-1.5,0.4-2.6,1.2-3.3c0.7-0.6,1.6-0.8,2.9-0.8c1.1,0,2.4,0.2,4.1,0.7c0.5,0.1,1,0.3,1.7,0.4c0.2,0,0.4,0.1,0.6,0.1l0.3-0.2l0.1-0.6v-1.5v-1.1c0-0.3,0-0.5,0.1-0.6c0-0.1,0.1-0.2,0.1-0.3l0-1.3h-0.9c-1.3,0-2.4,0-3.3-0.1s-1.8-0.2-2.7-0.3c-2.7-0.5-4-1.4-4-2.7c0-0.5,0.5-1.1,1.4-2l3.2-2.5c0.5-0.3,1.7-1,3.5-2.1c2.3-1.3,3.8-2,4.4-2c0.8,0,1.3,0.4,1.6,1.3c0.2,0.7,0.3,1.8,0.3,3.1l0,1.2v1.2v0.4l-0.1,0.7l-0.2,0.9c0,0.2,0.1,0.3,0.4,0.3l2.1-0.1l3.2-0.1l-0.5-0.7c-0.3-0.4-0.5-0.7-0.5-0.8l-0.4-1.7l-0.5-2c0-1.2,0.6-2.2,1.8-3c1.5-1,2.9-1.5,4.2-1.5c2.1,0,3.6,0.5,4.5,1.4c0.6,0.7,0.9,1.6,0.9,2.8v0.5c0,0.1,0,0.2,0,0.3c0,0.1-0.1,0.3-0.1,0.3l-0.1,1c0,1.5-0.5,2.8-1.5,3.8c-0.8,0.8-1.7,1.2-2.5,1.2c0,0,0,0,0,0c-0.3,0-0.6-0.1-0.7-0.2l-0.1,1.5l-0.1,3.3c0,2.6-0.9,4.3-2.8,5c-1,0.4-3.3,0.6-7,0.6c-0.3,0-0.5,1-0.5,3.1l-0.1,5.7v4.5v6.5l-2.6,0.2l-1.7-0.2l0.1-1.5l0.2-1.4c0.1-0.9,0.2-1.7,0.2-2.5c0.1-0.7,0.1-1.6,0.1-2.5l0.1-6.8l0-1.5l0.2-3.1c0-0.9-0.1-1.4-0.2-1.4l-1.8-0.7c-1.4-0.4-2.5-0.7-3.5-0.7c-0.6,0-1.1,0.1-1.5,0.3c-0.4,0.2-0.5,0.4-0.5,0.8c0,1.1,0.8,1.9,2.3,2.3l2.2,0.4l0.6,1.9c-0.4,0.2-1,0.4-1.8,0.5l-2.5,0.1h-0.8c-1.1,0-1.9-0.6-2.5-1.9C615.4,71.8,615.2,70.8,615.2,69.8z M619.3,58.2c0.7,0.1,1.3,0.2,1.8,0.4c0.4,0.1,1.1,0.2,2.1,0.2h0.8c0.3,0,0.6,0,1-0.1l1.4-0.1l-0.1-1.3l0-1.1c0-0.1,0-0.3,0-0.6c0-0.3,0-0.5,0-0.6v-0.5c0-0.1,0-0.3,0-0.6s-0.1-0.5-0.3-0.7c-1.5,0.4-2.8,0.9-3.8,1.5C620.8,55.7,619.8,56.8,619.3,58.2z M630.1,61l0,4.3l0.2,1.2l0.7,0.2c0.4,0.1,0.7,0.1,0.9,0.1c0.2,0,0.5,0,0.9,0c0.7,0,1.3-0.1,1.9-0.3s1.1-0.5,1.5-1l0.2-0.9l0-0.9c0-0.4,0-0.8-0.1-1.2c0-0.4-0.1-0.9-0.3-1.5l-1.2,0.2l-1.1,0l-2-0.1L630.1,61zM637.2,54.8l0.4,1.3l0.4,1.7c1-0.2,1.6-0.3,2-0.5c0.8-0.4,1.2-1.1,1.2-2.1c0-1-0.1-1.8-0.4-2.4c-0.2-0.6-0.6-0.9-1.2-0.9c-0.9,0-1.5,0.2-1.9,0.6C637.4,53,637.2,53.7,637.2,54.8z"/>
		<path d="M657.5,73.6l0.3-1.4c0.3-0.6,1.3-1.7,2.9-3.4c1.8-1.8,3.4-3.2,5-4.4c2-1.5,3.5-2.3,4.5-2.3c0.6,0,1.1,0.7,1.3,2.2l0.1,2.8v0.4V68l0,1.2v1.1v0.3h0.3c0.8,0,1.4-0.1,1.9-0.2l1.5-0.4l8.2,0c-0.6,0.4-1.1,0.7-1.5,1c-1,0.8-1.5,1.5-1.5,2.1c0,0.2,0.1,0.4,0.2,0.6H674l-2.6,0.2c0,1.5,0.1,2.9,0.2,4.4l0.6,4.7l0.7,4.5l-0.5,1.4c-0.4,0.9-0.7,1.4-0.9,1.4c-1,0-1.8-1.6-2.3-4.9c-0.4-2.7-0.5-6.6-0.5-11.5c-1.4,0-2.8,0.1-4.3,0.2l-3,0.2l-1.9-0.1c-0.3,0-0.5-0.1-0.8-0.2C658.3,73.9,658,73.8,657.5,73.6z M661.8,71.6l2.8-0.5l1.9-0.3c0.6-0.1,1.1-0.1,1.4-0.1s0.6,0,0.7,0l-0.1-1.7l-0.1-1.1c0-0.2,0-0.4,0-0.6s0-0.4,0.1-0.6c-1.3,0.6-2.4,1.1-3.1,1.6C664,68.9,662.9,70,661.8,71.6z"/>
		<path d="M701.2,73.2c0,0,0-0.1,0-0.1c0-0.1,0.2-0.3,0.5-0.5c0.6-0.3,1.5-0.5,2.5-0.5c1,0,1.7,0.2,2.2,0.5l1.3,1.4c3.2,0,5.6-1.4,7.3-4.1c1.2-2.1,1.9-4.3,1.9-6.8c0-1.7-0.6-3.3-1.7-4.7s-2.5-2.1-3.9-2.1c-0.2,0-0.6,0.2-1.4,0.6c-0.9,0.5-1.5,1.1-1.9,1.7c-0.2,0.4-0.4,0.8-0.4,1.2c0,0.3,0,0.6,0.1,0.8l0.2,0.6l-0.1,0.6c-0.1,0.2-0.3,0.5-0.6,0.9l-0.4,0.5c-0.8-0.4-1.3-0.9-1.5-1.2s-0.4-0.8-0.4-1.4V60l0-0.8c0-1.3,0.7-2.7,2.1-4c1.4-1.3,2.8-2,4.1-2c2.9,0,5.1,0.9,6.6,2.8c1.3,1.6,1.9,3.6,1.9,6c0,0.8-0.1,1.7-0.2,2.7c-0.1,0.9-0.3,2-0.6,3.2c-0.5,2.3-1.1,3.7-1.8,4.4c-1.9,1.8-3.4,2.9-4.7,3.5c-0.5,0.2-1.5,0.4-2.9,0.6c0.9,1,1.5,1.8,1.9,2.2c0.6,0.7,1.1,1.3,1.4,1.7c0.8,1,1.2,1.6,1.2,2l-0.1,0.3l-1.4,1.3c-1.2,1.1-2,1.6-2.3,1.6c-0.1,0-0.3-0.1-0.3-0.2c-0.3-0.8-0.7-1.6-1.1-2.3c-0.4-0.7-0.9-1.5-1.6-2.4c-0.6-0.8-1.6-2.1-3.1-3.8C702.5,75.3,701.6,74.1,701.2,73.2z"/>
		<path d="M740.5,59.4c0-1.3,1.1-2.8,3.3-4.5c1.8-1.3,4-2,6.6-2c2.6,0,4.7,0.5,6.4,1.5c1.8,1.2,2.8,2.8,2.8,5v0.4c0,1-0.1,1.7-0.2,2.1c-0.3,1.5-0.8,3-1.7,4.4c-1.2,1.9-2.9,3.8-5.2,5.5l-3.6,2.8c-1,0.9-1.5,1.5-1.5,1.8c0,0.6,0.7,1.4,2,2.4c1.7,1.3,3.5,1.9,5.6,1.9c0,0,0,0,0,0c0.4,0,0.7,0,1.1,0c0.4,0,0.9-0.1,1.5-0.3c-1.2,2.1-2.7,3.4-4.4,4.1c-0.9,0.3-2,0.5-3.4,0.5c-0.8,0-2.1-0.9-4.1-2.7c-2.1-2-3.2-3.7-3.2-5.1c0-2.3,1.1-4.1,3.3-5.3l6.2-3.2c2.2-1.8,3.3-4.6,3.3-8.3c0-1.7-0.5-2.8-1.6-3.5c-0.8-0.5-1.7-0.7-3-0.7c-2.4,0-4.2,1-5.3,3c-1.1,2-2,3-2.5,3c-0.6,0-1.2-0.4-1.8-1.1C740.7,60.2,740.5,59.8,740.5,59.4z"/>
		<path d="M774,64.2c0-0.3,0.1-0.6,0.1-0.9c0-2.2,1.1-4.8,3.3-7.7c2.3-3.1,4.6-4.7,6.7-4.7c1,0,1.7,0.1,2.1,0.3c0.4,0.2,0.6,0.7,0.6,1.3c0,1.5,0,2.8,0,3.9c0,1.1,0,2.2,0.1,3.2c0,0.3,0,0.6-0.1,1.1c-0.1,0.4-0.1,0.8-0.1,1c0,0.2,0,0.4,0,0.5c0.4,0,0.9-0.1,1.4-0.1c0.5,0,1,0,1.6,0c0.5,0,1.2-0.1,2-0.2c0.8-0.1,1.3-0.2,1.4-0.2l0-3.3c0-1.2,0.1-2.3,0.3-3.1c0.2-0.9,0.7-1.8,1.4-2.7c1.5-1.9,3.7-2.8,6.6-2.8c1.1,0,2.2,0.7,3.3,2c0.9,1.1,1.4,2.3,1.4,3.8c0,2.2-0.7,4-2,5.3c-0.9,0.8-2.3,1.5-4.2,1.9c-1.9,0.5-2.9,0.8-3.2,1v0.7V65v0.5v0.5v0.4v0.4c0,0.4,0,0.8,0,1.1c0,0.4,0,0.7,0,1.1v0.3c0,0.1,0,1.2-0.1,3.2c-0.1,2.1-0.1,4-0.1,5.8c0,2.5,0,4.1,0,4.7c0,0.6,0.1,1.1,0.2,1.4c0.1,0.4,0.3,0.5,0.5,0.5c0.2,0,0.4-0.1,0.6-0.2c0.4-0.2,0.9-0.5,1.3-0.7c0.7-0.3,1.5-0.4,2.2-0.4l-2.4,1.9c-0.8,0.6-1.5,1-2.1,1.4c-0.8,0.4-1.3,0.6-1.6,0.7c-0.2,0.1-0.5,0.2-0.8,0.2c-0.4,0-0.7-0.1-1-0.3c-0.2-0.1-0.3-0.4-0.3-0.9c0-0.6,0-1.3,0-2.2c0-0.8,0-1.7,0.1-2.5c0-1.2,0-2.8,0-4.6c0-1.8,0-3.9,0.1-6.2l0-6.3c-1,0.3-2.4,0.5-4.1,0.5s-2.6,0.1-2.8,0.1c0,0.6-0.1,1.5-0.1,2.5s-0.1,2.7-0.1,5.1s0,4.4,0,6.2c0,0.3,0.1,1.2,0.2,2.7c0.1,1.5,0.2,2.5,0.2,2.9c0,1-0.2,1.9-0.5,2.4c-0.4,0.7-1,1-1.9,1c0,0,0,0,0,0c-0.8,0-1.4-0.1-1.8-0.3c-0.3-0.2-0.5-0.6-0.5-1.1c0-0.5,0.1-1.2,0.4-1.9c0.3-0.9,0.5-2,0.7-3.3c0.2-1.3,0.3-2.8,0.5-4.4l0.2-5.2c0-0.7,0-2,0.1-3.7c0-1.8,0.1-2.7,0.1-2.7c-0.7-0.1-1.2-0.2-1.5-0.2c-0.9-0.1-1.6-0.2-2.2-0.2c-0.1,0-0.3,0-0.5,0c-0.3,0-0.6,0-1.1,0c-0.9,0-1.8,0-2.5-0.1c-0.8-0.1-1.3-0.2-1.7-0.5c0,0-0.1-0.1-0.1-0.2C773.9,64.4,774,64.3,774,64.2z M777.3,61.2c0.3,0.5,1.3,0.8,3,1c0.8,0.1,1.5,0.1,2.1,0.1c0.3,0,0.5,0,0.6,0s0.2,0,0.2,0c0,0,0-0.6,0.1-1.9s0.1-2.3,0.1-3.1c0-0.7,0-1.3-0.1-1.9c0-0.5-0.1-1-0.3-1.3c-0.5,0.2-1,0.5-1.7,1c-0.6,0.5-1.1,0.9-1.4,1.3c-0.3,0.4-0.8,1-1.3,1.9C778.2,59.3,777.7,60.3,777.3,61.2z M796.5,58.9c0,0.5,0,1,0,1.3s0.1,0.6,0.2,0.9l2.6-0.7c1.6-0.9,2.4-1.6,2.6-1.8c0.4-0.7,0.6-1.6,0.6-2.8c0-0.8-0.2-1.5-0.7-2c-0.5-0.5-1-0.8-1.6-0.8c-0.8,0-1.6,0.4-2.4,1.1s-1.2,1.5-1.2,2.4c0,0.2,0,0.6,0,1.3S796.5,58.7,796.5,58.9z"/>
		<path d="M862.7,81c0-0.6,0.2-1.2,0.7-1.7l3.4-3.7c0.5-0.7,1-1.5,1.5-2.4c0.6-1.2,1.1-1.7,1.7-1.7c1.1,0,1.9,0.4,2.7,1.3l2.1,3.1l2.1,2.3c0.8,1,1.2,1.8,1.2,2.3c0,0.4-0.1,0.6-0.2,0.8c-0.1,0.1-0.3,0.2-0.6,0.2l-0.6,0l-0.6-0.1c-0.6,0-1.4-0.6-2.4-1.8l-3-3.8l-2.8,3.8c-0.9,1.2-1.9,1.8-3,1.8c-0.3,0-0.6,0.1-1.1,0.2l-0.7,0.2c-0.1,0-0.2-0.1-0.2-0.1S862.7,81.3,862.7,81z"/>
		<path d="M941.4,80.4c0.1-0.3,1-0.9,2.5-1.9c1.9-1.3,3.2-2.2,3.9-2.9c1.4-1.2,2-2.2,2-2.9l0-0.7l0.2-1.3l-0.1-0.8l-1.6,0.2l-1.5,0.3c-1,0-1.7-0.1-2.2-0.3c-0.6-0.3-1-0.7-1.2-1.4c0-0.6,0.5-0.9,1.6-1.1c1-0.1,2-0.3,2.8-0.6l0.7,0l3.2,0c1.1,0,2.1,0,3,0.1l0.5,0.1l0.6,0c0.7,0,1.1,0,1.4,0.1c0.2,0.1,0.4,0.3,0.4,0.7l-0.4,1.2l-0.4,1.1c-0.2,0-0.5,0-0.8,0c-0.3,0-0.6-0.1-1-0.1l-1.9,0.1c0,0.3,0,0.5-0.1,0.7c0,0.2-0.1,0.6-0.3,1s-0.2,1-0.2,1.7c0,0.8,1.1,2,3.4,3.8l3.4,2.5c0,0.2-0.3,0.8-0.9,1.6c-0.3,0.4-0.6,0.7-0.8,0.7c-1.2,0-2.5-0.6-3.9-1.9l-3.1-3c-1,1-2.2,2-3.6,3.1c-1.9,1.4-3.2,2.1-4,2.1c-0.3,0-0.4-0.1-0.6-0.2l-0.8-1.5L941.4,80.4z"/>
		<path d="M981.6,77.9c0-0.8,0.9-2.3,2.8-4.6c2-2.4,3.6-3.7,4.6-3.7h0c2.1,0,4.2,0.7,6.4,2.2c2.3,1.6,3.5,3.3,3.5,5.1l0.1,1.4l0.1,1c0,0.4-0.2,1-0.5,1.8c-0.1,0.3-0.4,0.8-0.7,1.4c-0.3,0.6-0.8,1.3-1.3,2.2c-0.9,1.5-2,3-3.4,4.6c-1.6,1.8-3.4,3.4-5.2,4.6c-2.1,1.4-4.1,2.2-6,2.5c1.3-0.6,2.4-1.4,3.4-2.2c0.8-0.6,1.6-1.3,2.4-2.1c0.8-0.8,1.5-1.6,2.1-2.5c1.7-2.3,3.2-5.2,4.7-8.6l0.1-1.7c-0.9,1.1-1.9,2-3,2.7c-0.5,0.3-1.1,0.6-1.6,0.7c-0.5,0.2-1.1,0.3-1.6,0.3c-0.9,0-2.2-0.6-4.1-1.8C982.6,80,981.6,78.8,981.6,77.9z M986.6,76.3c0,0.8,0.9,1.7,2.6,2.6c1.4,0.8,2.7,1.1,3.6,1.1c0,0,0,0,0,0c0.3,0,0.4,0,0.5-0.1c0.8-0.2,1.4-0.7,1.7-1.4c-0.2-1-0.5-1.7-0.7-2.3c-0.6-1.5-1.2-2.3-1.9-2.3c-0.7,0-1.8,0.3-3.4,1C987.5,75.8,986.7,76.2,986.6,76.3z"/>
		<path d="M1021,70.2c0.1-0.1,0.5-0.3,1-0.5c0.5-0.2,1.1-0.5,1.8-0.6c0,0,0.1,0,0.1,0c0.3,0,0.5,0.3,0.7,0.9c0,0.1,0.1,0.3,0.1,0.5c0.3,0,0.9,0.1,1.6,0.2c0.7,0.1,1.4,0.1,2.1,0.1c0.5,0,0.8,0,1.1,0s0.6-0.1,0.8-0.2c0-0.9,0.1-1.8,0.3-2.6c0.2-0.8,0.4-1.4,0.8-1.9c0.4-0.5,1-0.9,1.9-1.3c0.9-0.4,1.5-0.6,1.9-0.6c0.4-0.1,0.7-0.1,0.9-0.1c0.7,0,1.3,0.2,1.8,0.5c0.5,0.3,1,0.7,1.3,1.1c0.2,0.3,0.4,0.8,0.5,1.3c0.1,0.5,0.1,1.1,0.1,1.7c0,0.4-0.1,0.9-0.4,1.4c-0.3,0.5-0.6,1-1.1,1.4c-0.4,0.3-1.1,0.5-1.9,0.6c-0.9,0.1-1.7,0.3-2.5,0.4c0,0.5,0,1-0.1,1.7l0.7,3.2l0.3,1.1c0,0.1,0.2,0.7,0.5,2c0.1,0.2,0.2,0.6,0.5,1.1c0.2,0.4,0.3,0.8,0.3,1.2c0,0.1-0.2,0.2-0.7,0.3c-0.4,0.1-1,0.1-1.7,0.1c-0.4,0-0.8,0-1.2-0.1c-0.4,0-0.6-0.1-0.6-0.3c0-0.6-0.1-1.7-0.4-3.2c-0.3-1.5-0.6-2.9-0.8-4.2c-0.1-0.9-0.1-1.5-0.1-2c0-0.4-0.1-0.7-0.2-0.7l-5.3-0.1c0,1,0.1,2.2,0.2,3.4c0.1,1.2,0.3,2.2,0.5,2.8c0.2,0.7,0.4,1.3,0.6,1.9s0.5,1.1,0.8,1.4c-0.4,0.3-1,0.5-1.8,0.6s-1.7,0.2-2.4,0.2c-0.3,0-0.5-0.5-0.6-1.4c-0.1-0.9-0.2-1.9-0.3-2.8c-0.1-0.3-0.2-1.4-0.2-3.1C1021.8,74,1021.5,72.1,1021,70.2z M1033.5,69.5c0,0.3,0,0.5,0,0.8c0.6,0,1.3-0.1,2-0.3c0.8-0.2,1.3-0.4,1.6-0.6c0.3-0.2,0.4-0.4,0.5-0.6c0.1-0.2,0.1-0.4,0.1-0.6s0-0.3-0.1-0.5c0-0.1-0.1-0.2-0.1-0.3c-0.1-0.3-0.3-0.6-0.7-0.8c-0.3-0.2-0.5-0.3-0.7-0.3c-0.1,0-0.1,0-0.2,0c-0.5,0.1-0.9,0.3-1.2,0.4c-0.4,0.2-0.7,0.5-1,1C1033.6,68.3,1033.5,68.9,1033.5,69.5z"/>
		<path d="M819.1,78.3c0-2.2,1.1-4.2,3.4-6c1.9-1.5,3.3-2.2,4.3-2.2l2.4-0.2l-0.1,0.8c0,0.8,0.3,2.1,0.9,3.7s1.2,3,1.7,3.9c0.3,0.5,0.5,0.8,0.7,1s0.4,0.3,0.6,0.3c0.3,0,0.7-0.3,1.2-0.8s1.2-1.5,2.1-2.8c0.4-0.8,0.8-1.5,1-2.1c0.7-1.8,1-3.5,1-5.1c0-0.4,0-0.9-0.1-1.3c0-0.4-0.1-1-0.3-1.7c-0.3-1-0.8-2-1.6-2.9c-1-1-2.2-1.6-3.4-1.6c-0.4,0-0.7,0.1-1,0.2c-0.3,0.1-0.6,0.2-0.9,0.2c-0.5,0-0.9,0-1.2,0c-0.6,0-1.3,0.1-1.9,0.2s-1.4,0.5-2.3,1c-0.3,0.3-0.5,0.4-0.6,0.4c-0.1,0-0.2-0.2-0.2-0.6c0-0.3,0.1-0.8,0.2-1.5c0-0.2,0.1-0.5,0.2-0.9c0.7-0.9,1.6-1.5,2.8-1.9c1.2-0.4,2.5-0.7,3.9-0.7c2.4,0,4.5,0.6,6.4,1.7c2,1.3,3.2,3,3.6,5.2c0,0.3,0.1,0.6,0.1,0.7c0,0.2,0,0.5,0,0.8c0,2.1-0.2,4-0.6,5.9c-0.6,2.7-1.6,4.9-2.9,6.6c-1.5,1.8-2.8,3.2-3.9,4c-0.9,0.7-1.7,1-2.3,1c-0.4,0-0.7-0.1-0.9-0.4c-0.1-0.1-0.1-0.2-0.3-0.4c-0.1-0.1-0.5-0.4-1.1-1c-0.6-0.6-1-1-1.3-1.2l-4,2.1c-1.4,0.8-2.3,1.1-2.6,1.1c-0.6,0-1.3-0.8-2.1-2.4C819.4,80,819.1,78.9,819.1,78.3z M822.5,74.7c0,1.1,0.3,2.2,1,3.4c0.6,1,1,1.6,1.3,1.6c0.4,0,0.8-0.1,1.1-0.2c0.7-0.2,1.3-0.6,1.6-1.2c-0.1-1-0.5-2.1-1.1-3.5c-0.6-1.4-1.1-2.2-1.6-2.5c-0.1,0-0.1,0-0.2,0c-0.4,0-0.8,0.4-1.3,1.1L822.5,74.7z"/>
		<path d="M61.6,77.9l0-0.8c0-0.3,0.4-0.9,1.1-1.8c0.7-0.9,1.5-1.7,2.4-2.3c0.7-0.6,1.2-1,1.8-1.2l2.3-0.5l1.3-0.1c0.4,0,0.6,0,0.8,0.1c0.1,0.1,0.2,0.2,0.2,0.4c0,0.1,0,0.2-0.1,0.3l-0.2,0.2c-0.8,0.3-1.8,0.9-3,1.8l-1.7,1.3c-0.1,0.2-0.2,0.4-0.3,0.6c0,0-0.1,0.2-0.3,0.6c-0.1,0.4-0.2,0.7-0.2,1c0,0.6,0.3,1.1,0.8,1.4c0.5,0.3,1.2,0.5,1.9,0.5c0.8,0,1.4-0.1,1.9-0.4c2-1.1,3.5-2.8,4.7-5.4c1-2.1,1.4-4.3,1.4-6.5c0-1.2-0.2-2.1-0.5-2.8c-0.6-1.3-1.5-2.3-2.7-3c-0.4-0.2-0.9-0.4-1.4-0.5c-0.5-0.1-1-0.2-1.6-0.2c-0.4,0-0.6,0-0.8,0.1l-0.6,0.1c-1.4,0.5-2.4,1.1-3,2L65,65.3l-0.3,0.1c-0.3,0-0.7-0.4-1.1-1.1c-0.4-0.8-0.6-1.6-0.6-2.5c0-0.8,0.2-1.6,0.6-2.3s1-1.3,2-1.6c1.4-0.6,3-1,4.6-1c2.6,0,4.8,0.8,6.4,2.5c1.9,1.9,2.9,4.7,2.9,8.3c0,1.1-0.1,2.1-0.2,3.1C79,72.9,78.2,75,76.9,77c-1.5,2.3-3.3,4-5.4,5.1c-1.8,0.9-3.3,1.4-4.7,1.4c-1.6,0-3-0.6-3.9-1.8C62,80.5,61.6,79.3,61.6,77.9z"/>
		<path d="M19.5,167.5c0-2.2,0.9-4,2.8-5.6c1.5-1.2,2.7-1.9,3.6-1.9l16.4-0.1l0,3.7H28.6c0.4,1.2,1.1,2.2,1.9,3.1c1,1.1,2.4,2.1,4.1,2.9l1,1.2c-0.2,0.1-0.5,0.3-0.9,0.5c-0.3,0.2-0.8,0.5-1.3,0.9c-0.7,0.4-1.2,0.7-1.5,0.7c-0.6,0-1.4-0.4-2.6-1.2l-1.6-1.2l-2.2,1.2c-1.5,0.8-2.5,1.3-3,1.3c-0.6,0-1.3-0.8-2-2.4C19.8,169.3,19.5,168.2,19.5,167.5zM22.3,165.1c0,1,0.3,2,1,2.9c0.6,0.8,1,1.2,1.3,1.2l0.5,0c0.4,0,0.8-0.1,1.2-0.2c0.4-0.1,0.7-0.4,1-0.8c-0.1-0.9-0.6-1.9-1.4-3.2c-0.8-1.3-1.4-2.1-2-2.5c-0.1,0-0.1,0-0.1,0c-0.3,0-0.7,0.4-1,1.1L22.3,165.1z"/>
		<path d="M216.5,159.2c0-1,0.5-1.9,1.4-2.7c0.9-0.8,2-1.2,3.2-1.2c1,0,1.7,0.2,2.3,0.5l2.1,1.6l0-0.5c0-0.3,0-0.7,0-1c-0.1-0.3-0.1-1.5-0.1-3.6l0.1,0.8l-1.8-11.9l1.6-0.3l0.8-0.1c1.2,0,1.9,0.2,2.3,0.6c0.1,0.1,0.2,0.3,0.3,0.6s0.1,0.7,0.1,1.2l0,1l-0.2,2c0.1,0.4,0.1,0.7,0.1,0.9c0,0.2,0.1,0.4,0.4,0.6l1.3,0.6l0.7,0.1l0.7,0l0.8-0.1c0.8,0,1.3-0.2,1.5-0.5c0.2-0.3,0.4-0.9,0.4-1.6c0-0.3,0-0.6-0.1-0.9c0-0.3-0.1-0.6-0.1-0.8l-0.2-1.8c0-1.2,0.3-2,0.9-2.6c0.8-0.8,2.1-1.1,4.1-1.1c0.8,0,1.6,0.2,2.3,0.5c0.8,0.4,1.3,1,1.3,1.8l0.4,0.6c0.3,0.6,0.4,1.2,0.4,1.8c0,0.4-0.1,0.9-0.2,1.4c-0.1,0.5-0.3,1-0.6,1.6c-0.7,1.4-1.3,2.3-1.7,2.6c-0.4,0.3-1.4,0.6-3.1,1c0,0.5,0,0.9,0,1.2c0,0.2,0.1,0.7,0.2,1.4c0.1,0.7,0.2,1.2,0.2,1.6c0,0.4,0.1,0.8,0.1,1.1l0,0.7c0,0.3,0,0.5-0.1,0.7c-0.6,1.8-1.2,3-1.8,3.7c-0.6,0.5-1.3,0.8-2.1,0.8h-0.4c-0.1,0-0.2,0-0.3,0c-0.2,0-0.3-0.1-0.4-0.1l-2.3-0.2h-0.5l-0.5,0.1l-0.2,4.7h13l-0.1,3.7h-12.9l-0.2,2.8l0.3,4c0.1,1.2,0.1,2.1,0.1,2.7c0,0.9-0.1,1.5-0.3,2c-0.2,0.5-0.5,0.7-0.9,0.7c-0.3,0-1-0.3-2.1-0.9s-1.6-1-1.6-1.3l0.4-1.2c0.1-0.4,0.2-0.7,0.3-1c0.1-0.3,0.1-0.5,0.1-0.7l0.1-7.3h-8.3v-3.7h8.4l0-2.9c0-0.3,0-0.7,0-1.3c0-0.6,0-1,0-1.3c-0.7-0.2-1.3-0.6-1.9-1c-0.9-0.7-1.4-1-1.7-1h0l-1.7,0.1c-0.6,0.1-0.9,0.4-0.9,0.9c0,0.3,0.3,0.6,1,1l1.1,0.7c-0.2,0.3-0.4,0.5-0.6,0.6c-0.1,0.1-0.4,0.1-0.8,0.1l-0.9,0c-0.5,0-1.1-0.3-1.8-0.9C216.9,160.2,216.5,159.7,216.5,159.2z M228.8,150.5c0,0.5,0,1,0,1.5c0,0.5,0.1,0.9,0.1,1.4l0.5,5l3.8,0.5c1.3-0.4,2-1,2-1.7l0.2-1.9l0-0.5l0-0.4c0-0.8-0.1-1.5-0.3-2.1l-0.3-0.8c-0.3,0-0.7,0-1.1,0.1l-1,0.1h-0.4c-0.1,0-0.3,0-0.4-0.1l-0.7-0.4l-1.3-0.1c-0.1,0-0.3-0.1-0.5-0.1C229.4,150.8,229.1,150.7,228.8,150.5z M236.8,146.1l0.1,1.3c1.1-0.2,2-0.6,2.6-1.2c0.6-0.6,0.9-1.3,0.9-2c0-0.4-0.1-0.8-0.4-1.1c-0.2-0.3-0.6-0.4-1.1-0.4c-0.9,0-1.5,0.1-1.7,0.3c-0.2,0.2-0.3,0.8-0.3,1.7l0,1.2C236.8,146,236.8,146.1,236.8,146.1z"/>
		<path d="M296.7,160h26.7l-0.1,3.7h-10.4c-1.1,0.4-1.8,0.8-2.1,1.2c-0.2,0.2-0.4,0.7-0.6,1.5l-0.1,0.4c0,0.7,0.4,1.5,1.3,2.2c0.8,0.7,1.8,1.1,3,1.1c0.3,0,0.5,0,0.7,0c0.1,0,0.4-0.1,0.7-0.2c0.3-0.1,0.6-0.2,0.8-0.3c0.2-0.1,0.5-0.3,0.8-0.5c0.1,0,0.1,0.1,0.2,0.1c0.1,0,0.2,0.1,0.3,0.1l0.9,0.1h0.9c0.2,0,0.3,0,0.4-0.1c0,1.8-1.4,3.1-4.3,3.9c-1.4,0.4-2.9,0.6-4.4,0.6c-1.8,0-3.4-0.4-4.7-1.2c-1.3-0.8-2-1.8-2-2.9c0-0.4,0.4-1,1.1-2l2.3-2.8c-0.4-0.4-1.1-0.7-1.9-0.9c-0.4-0.1-0.9-0.1-1.3-0.2c-0.4,0-0.9-0.1-1.5-0.1h-6.4L296.7,160z"/>
		<path d="M341,160.1l2.3-0.1l4.7,0l6,0l5.1,0l-0.1,3.6h-11l1.2,2.8c0.7,1.1,1.4,2,2.4,2.7l2.5,1.8c-0.3,0.6-0.8,1.2-1.4,1.7c-0.6,0.5-1.2,0.7-1.8,0.7c-0.3,0-0.5,0-0.7-0.1c-1.2-0.4-2-1-2.6-2l-2-4.1C344.1,164.6,342.7,162.3,341,160.1z"/>
		<path d="M417.1,167.6V164h5.4l-0.1-1.6l-0.1-1.8l0-1l0-1.2c0-0.3,0-0.7,0-1.3c0-0.6,0-1.1,0-1.5l-0.2-5.1c0-2.6,0.2-4.7,0.7-6.1c0.6-1.8,1.6-3,3.1-3.5c-0.3,0.9-0.6,1.7-0.7,2.3c-0.2,0.7-0.2,1.3-0.2,1.9c0,1.5,0.5,2.6,1.6,3.2c0.7,0.4,1.7,0.6,3,0.6l0.9,0c0.3,0,0.6,0,0.8-0.1l1-3.7c0.8-2.9,2.9-4.3,6.4-4.3c0,0,0,0,0,0c0.7,0,1.5,0.7,2.5,2.1c1.1,1.6,1.7,3.2,1.7,4.9c0,1.7-0.3,2.8-1,3.5c-0.5,0.5-1.3,0.8-2.4,0.8l-1.4,0l-2.4-0.1l-0.7,0l-0.1,12h7.2l-0.1,3.7h-7.1l0,5c0.1,1.2,0.4,2,0.7,2.4c0.3,0.5,0.8,0.7,1.3,0.7c0.5,0,1.1-0.2,1.8-0.7l0.9-0.8c0,1.2-0.5,2.1-1.4,2.8c-0.9,0.7-2.1,1.1-3.5,1.1c-1.5,0-2.6-0.6-3.3-1.9c-0.5-1.1-0.8-2.6-0.8-4.7l0-1.8l0.2-2.2h-4c0,0,0,0.9,0.1,2.5c0.1,1.6,0.1,2.8,0.1,3.6l0.1,3c0,0.5-0.3,0.9-0.9,1.2s-1.4,0.4-2.3,0.4c-0.5,0-1-0.2-1.6-0.5s-0.8-0.7-0.8-1.2c0.2-0.9,0.5-2,0.7-3.4c0.2-1.4,0.3-2.8,0.3-4.2l0.1-1.3H417.1zM426.5,159.7l0,1.5l0.2,2.8h4.5l0.2-2.7l0.1-2.2l0.2-3.8l0.1-3.4c-0.7,0-1.4,0.1-2,0.2l-1,0l-0.8-0.1l-1.2-0.3c-0.1,0.3-0.1,0.6-0.2,1c0,0.4-0.1,0.8-0.1,1.3l-0.1,3.7V159.7z M434.5,148.6l1.7,0.2l1.7,0.1c0.7,0,1.2-0.1,1.5-0.2s0.5-0.4,0.5-0.8l0-0.3c-0.1-0.5-0.3-1.2-0.6-2l-0.4-1.2c-0.8,0-1.6,0.1-2.3,0.4c-1,0.3-1.7,0.8-2,1.4l-0.1,0.3l0.1,0.5l0.1,0.6C434.7,148,434.6,148.3,434.5,148.6z"/>
		<path d="M578,168.8c0-1.9,0.8-3.8,2.3-5.6c1.5-1.8,3.3-2.9,5.4-3.1l17.3,0v3.6h-9.8c0,2.6-1.2,4.8-3.5,6.7c-2.2,1.8-4.6,2.6-7.2,2.6c-0.4,0-1.2-0.5-2.4-1.4C578.7,170.6,578,169.6,578,168.8z M582.2,165.8l2,2.4c1.2,1.4,2.1,2.1,2.7,2.1c0.2,0,0.6-0.5,1.2-1.6c0.6-1.1,0.9-1.8,0.9-2.4c0-0.3-0.5-1-1.5-2c-1.1-1.1-2-1.6-2.6-1.6c-0.4,0-1,0.6-1.8,1.7L582.2,165.8z"/>
		<path d="M616.8,146.3l3.2-2.5c0.5-0.3,1.7-1,3.5-2.1c2.3-1.3,3.8-2,4.3-2c0.8,0,1.3,0.4,1.6,1.3c0.2,0.7,0.3,1.8,0.3,3.1l0,1.2v1.2v0.4l0,1.9l5.4-0.1l-0.4-1l-0.4-1.1l-0.5-1.4l-0.5-1.7c0-1.2,0.6-2.2,1.8-3c1.5-1,2.9-1.5,4.2-1.5c2.1,0,3.6,0.5,4.5,1.4c0.6,0.7,0.9,1.6,0.9,2.8v0.5c0,0.1,0,0.2,0,0.3c0,0.1-0.1,0.3-0.1,0.3l-0.1,1c0,1.6-0.7,2.9-2.2,4c-1,0.7-2,1.1-2.9,1.1h-0.3l0.4,1.9l0.2,1.8c0,1.8-0.4,3.1-1.3,4c-0.7,0.7-1.9,1.1-3.5,1.3c-0.1,0-0.7,0-1.8,0.1c-1.1,0-2.2,0.1-3.3,0.1c-0.3,0-0.4,0.7-0.4,2.2c0,0.1,0,0.1,0,0.2l-0.1,4.2l12.4,0.1l-0.1,3.7h-12.3l0,3.1v6.5l-2.6,0.3l-1.7-0.2l0.1-1.5l0.2-1.4c0.1-0.3,0.2-0.7,0.2-1c0.1-0.4,0.1-0.8,0.1-1.3c0-0.8,0-1.6,0-2.3c0-0.7,0-1.4,0.1-2.1h-8.9V166h9.2v-1.7l0-2v-1.1c0-0.3,0-0.5,0-0.7c0-0.3-0.1-0.6-0.1-0.7c0-0.6-0.1-1-0.3-1l-1.5-0.4c-1.2-0.3-2.1-0.4-2.9-0.4c0,0,0,0-0.1,0c-0.7,0-1.3,0.1-1.7,0.3c-0.5,0.2-0.7,0.5-0.7,0.9c0,1.1,0.8,1.8,2.3,2.1l2.2,0.4l0.3,1.2c-0.4,0.2-0.8,0.4-1.4,0.5l-1.7,0.1h-0.6c-1.2,0-2.1-0.5-2.9-1.5c-0.3-0.4-0.6-0.8-0.8-1.3c-0.2-0.4-0.3-0.8-0.3-1.3c0-1.8,0.5-3,1.5-3.7c0.8-0.6,2-0.9,3.4-0.9c1,0,2.1,0.1,3.2,0.3c1.1,0.2,1.7,0.3,1.9,0.3c0,0,0,0,0,0l0.2-4.4l-1.2,0l-1.4,0c-2.4,0-4.2-0.2-5.5-0.5c-2-0.4-3-1.2-3-2.3C615.4,147.7,615.9,147.1,616.8,146.3z M619.3,148.2c0.7,0.1,1.3,0.2,1.8,0.4c0.4,0.1,1.1,0.2,2.1,0.2l0.9,0h0.9l1.7-0.1l-0.1-2.6c0-1.4-0.2-2.4-0.5-2.9c-1.5,0.4-2.7,0.9-3.8,1.5C620.7,145.7,619.7,146.8,619.3,148.2z M629.7,154.8l0,0.3l0.1,0.6l0.9,0.2c0.7,0.1,1.4,0.2,2.1,0.2c0.5,0,0.9,0,1.1,0c0.2,0,0.6-0.1,1-0.2c0.5-0.1,0.9-0.4,1.4-0.9l-0.2-1.1c-0.1-0.5-0.1-1-0.2-1.4c0-0.4-0.1-0.9-0.1-1.4l-1.6,0.1l-1.1,0l-1.7,0l-1.8,0v3.1L629.7,154.8z M637.1,144.8c0,0.4,0.1,0.9,0.4,1.4l0.7,1.4l1.8-0.6c0.8-0.3,1.1-0.9,1.1-1.8c0-1-0.1-1.8-0.4-2.4c-0.2-0.6-0.6-0.9-1.2-0.9c-0.9,0-1.5,0.2-1.9,0.6S637.1,143.7,637.1,144.8z"/>
		<path d="M740.5,168.8c0-0.5,0.1-1.1,0.3-1.6c0.2-0.5,0.6-1.3,1.2-2.4c0.6-1,1.4-1.8,2.3-2.3c0.7-0.4,1.5-0.6,2.5-0.6l4.5-0.3c1.9-0.9,3.2-2.4,4.2-4.3s1.4-4.3,1.4-6.9c0-1.7-0.4-3-1.3-3.8c-0.7-0.6-1.5-0.9-2.7-0.9c-1.6,0-2.7,0.4-3.2,1.2c-0.3,0.5-0.5,1.3-0.5,2.4c0,0,0,0.1,0,0.1v1c0,0.5-0.1,0.9-0.2,1.3c-0.1,0.3-0.4,0.5-0.8,0.5c-0.6,0-1.2-0.5-2-1.6c-0.7-1.1-1.1-1.8-1.1-2.2c0-1.5,0.7-2.8,2.1-4c1.4-1.2,3.4-1.8,5.9-1.8c2.3,0,4.2,0.9,5.6,2.6c1.3,1.6,1.9,3.6,1.9,6c0,1.8-0.5,3.6-1.4,5.3c-1,1.9-2.6,3.6-4.7,5.3h5.7l-0.1,3.8l-3.4-0.1l-4.4-0.1c-1,0-2.3,0-3.6,0.1c-1.4,0.1-2.1,0.1-2.2,0.1c-1.5,0-2.2,0.2-2.4,0.5c-0.1,0.4-0.2,0.7-0.3,1.1c0,1,0.6,1.9,1.9,2.6c0.6,0.3,1.4,0.6,2.2,0.7c0.8,0.2,1.7,0.3,2.7,0.3c1.4,0,2.7-0.2,4.1-0.5c-1.2,2-2.7,3.4-4.4,4.1c-0.9,0.3-2,0.5-3.4,0.5c-0.7,0-1.9-0.6-3.5-1.8c-1.7-1.3-2.7-2.5-2.9-3.5L740.5,168.8z"/>
		<path d="M773.9,153.1c0-2.2,1.1-4.7,3.3-7.5c2.3-3,4.6-4.5,6.8-4.5c1,0,1.7,0.1,2.1,0.3c0.4,0.2,0.6,0.7,0.6,1.3l0,4c0,0.4,0,0.9,0,1.6c0,0.7,0,1.2,0,1.5c0,1.3,0.1,2.1,0.2,2.3c0.2,0.2,0.8,0.3,1.9,0.3c1.5,0,2.5-0.1,3-0.3l1.1-0.7l-0.1-0.9l0-1c0-2.7,0.6-4.9,1.9-6.5c1.5-2,3.7-3,6.6-3c1.1,0,2.2,0.7,3.3,2.1c0.9,1.1,1.4,2.4,1.4,3.9c0,2.2-0.7,3.9-2,5.1c-0.9,0.8-2.3,1.5-4.1,2s-2.8,0.8-3,0.8c0,0.3,0,0.9,0,1.7c0,0.8,0,1.4,0,1.9l0,2.1l0,2.3l0,3.3h7.8v3.7h-8l-0.2,4.2c0,0.9,0,1.5,0.1,1.8s0.2,0.5,0.4,0.5l2.1-0.8c0.7-0.3,1.4-0.4,2.1-0.4c0,0,0.1,0,0.1,0l-2.4,1.9c-1.7,1.3-2.8,1.9-3.2,1.9l-0.4,0.2c-0.3,0.1-0.6,0.2-0.9,0.2c-0.4,0-0.7-0.1-1-0.3c-0.3-0.2-0.5-0.6-0.7-1.2c0.3-0.7,0.4-1.3,0.4-1.9l-0.2-2.9l-0.1-3.2h-6.4v1.6l0,1.7c0,2.1-0.1,3.6-0.4,4.4c-0.4,1.4-1,2-2.1,2c-0.8,0-1.3-0.1-1.6-0.3c-0.3-0.2-0.4-0.6-0.4-1.1v-0.3c0-0.2,0-0.5,0.1-0.8c0-0.3,0.1-0.6,0.2-0.8l0.4-1.7l0.3-4.7h-8V165h8.3l0.1-2.9l0-3.4l0.1-3.3c-0.7-0.1-1.2-0.2-1.6-0.2c-0.9-0.1-1.6-0.2-2.2-0.2l-3-0.1h-0.9c-0.9,0-1.5-0.1-1.6-0.2C774,154.5,773.9,154,773.9,153.1z M778,150.5l1.7,0.5l1.7,0.3l0.9,0.1c0.6,0,0.9-0.3,0.9-0.9l-0.1-0.9l-0.1-1.2c0-1.2-0.2-2.3-0.6-3.4c-1,0.4-1.8,0.9-2.3,1.5C779.6,147.2,778.8,148.5,778,150.5z M786.4,165h6.6l0-4c0-0.4,0-1,0-1.7c0-0.7,0-1.3,0-1.6v-1.1v-0.8l-0.1-0.7l-0.7,0.3l-0.5,0.1l-0.9,0l-0.9-0.1l-1.2,0c-0.3,0-0.8,0.1-1.4,0.2c-0.2,0-0.4,1.4-0.6,4.1L786.4,165z M796.5,148.7l0,1.3l0.2,1l2.6-0.6l2.3-1.4c0.6-0.5,1-1.6,1-3.2c0-0.9-0.3-1.6-0.8-2.1c-0.5-0.5-1-0.8-1.6-0.8c-0.4,0-0.9,0.1-1.3,0.4l-1.1,1c-0.5,0.5-0.8,1.1-1,1.9c-0.1,0.4-0.2,0.8-0.2,1.2C796.6,147.9,796.5,148.3,796.5,148.7z"/>
		<path d="M979.7,168.2c0-0.8,0.9-2.3,2.8-4.7c2-2.5,3.5-3.8,4.6-3.8c0.8,0,1.6,0.1,2.5,0.3h12.4l-0.3,3.7h-6.2c0.4,0.5,0.8,1,1.1,1.6c0.2,0.4,0.3,0.7,0.3,1c0.1,0.3,0.1,0.5,0.1,0.8l0.1,1.4l0.1,0.9c0,0.4-0.2,1-0.5,1.8c-0.1,0.3-0.4,0.8-0.7,1.4c-0.3,0.6-0.8,1.4-1.3,2.2c-0.9,1.5-2,3-3.4,4.6c-1.6,1.8-3.4,3.4-5.2,4.6c-2.1,1.4-4.1,2.2-6,2.5c1.3-0.6,2.4-1.4,3.4-2.2c0.8-0.6,1.6-1.3,2.4-2.1c0.8-0.8,1.5-1.6,2.1-2.5c1.7-2.3,3.2-5.2,4.7-8.6l0.1-1.7c-0.9,1.1-1.9,2.1-3,2.7c-0.5,0.3-1.1,0.6-1.6,0.7c-0.5,0.2-1.1,0.3-1.6,0.3c-0.9,0-2.2-0.6-4-1.7C980.7,170.3,979.7,169.2,979.7,168.2z M985.3,166.7c0,0.5,0.7,1.2,2.1,2.1s2.4,1.4,3.1,1.4l0.7-0.1c1.1-0.3,1.8-0.8,2.1-1.6c-0.1-0.3-0.1-0.6-0.2-0.9c-0.1-0.3-0.2-0.7-0.3-0.9c-0.5-1.3-1.1-1.9-1.8-1.9c-0.7,0-1.8,0.3-3.3,0.9C986.1,166.2,985.3,166.6,985.3,166.7z"/>
		<path d="M181.6,167.2l0-0.7c0-0.2,0.4-0.7,1.1-1.5c0.6-0.7,1.4-1.4,2.4-2.2c0.7-0.6,1.3-1,1.8-1.2l2.3-0.5l1.3-0.1c0.4,0,0.6,0,0.8,0.1c0.1,0.1,0.2,0.2,0.2,0.4c0,0.1,0,0.2-0.1,0.3l-0.2,0.2c-0.8,0.3-1.8,1-2.9,2.2l-1.6,1.8c0,0.1,0.2,0.4,0.6,0.8c0.4,0.4,0.8,0.7,1.3,1c0.6,0.4,1.2,0.7,2,0.9c0.5,0.1,1.3,0.3,2.3,0.5c0,0,0.1,0,0.1,0c0.6,0,2-0.4,4-1.1c1.2-0.4,2.1-0.7,2.6-0.8c-0.6,1.8-2.3,3.3-5.1,4.3c-2.2,0.8-4.4,1.3-6.5,1.3l-0.8,0c-1.2-0.1-2.4-0.7-3.6-1.7C182.3,169.9,181.6,168.6,181.6,167.2z"/>
	</g>
</svg>
